<?xml version="1.0" standalone="no"?><!DOCTYPE svg PUBLIC "-//W3C//DTD SVG 1.1//EN" "http://www.w3.org/Graphics/SVG/1.1/DTD/svg11.dtd"><svg t="1611110567849" class="icon" viewBox="0 0 1024 1024" version="1.1" xmlns="http://www.w3.org/2000/svg" p-id="9628" xmlns:xlink="http://www.w3.org/1999/xlink" width="200" height="200"><defs><style type="text/css"></style></defs><path d="M880 835.2L608 560c35.2-44.8 57.6-102.4 57.6-163.2 0-147.2-118.4-265.6-265.6-265.6-147.2 0-265.6 118.4-265.6 265.6 0 147.2 118.4 265.6 265.6 265.6 60.8 0 118.4-22.4 163.2-57.6l275.2 275.2 41.6-44.8z m-480-236.8c-112 0-201.6-89.6-201.6-201.6S288 198.4 400 198.4s201.6 89.6 201.6 201.6-92.8 198.4-201.6 198.4z" fill="#1079a9" p-id="9629"></path></svg>